<svg width="74.000000" height="76.040039" viewBox="0 0 74 76.04" fill="none" xmlns="http://www.w3.org/2000/svg" xmlns:xlink="http://www.w3.org/1999/xlink">
	<desc>
			Created with Pixso.
	</desc>
	<defs>
		<clipPath id="clip2_6154">
			<rect id="Icons/game-development" width="74.000008" height="76.039818" fill="white" fill-opacity="0"/>
		</clipPath>
	</defs>
	<rect id="Icons/game-development" width="74.000008" height="76.039818" fill="#FFFFFF" fill-opacity="0"/>
	<rect id="Icons/game-development" width="74.000008" height="76.039818" fill="#FFFFFF" fill-opacity="0"/>
	<rect id="Icons/game-development" width="74.000008" height="76.039818" fill="#FFFFFF" fill-opacity="0"/>
	<rect id="Icons/game-development" width="74.000008" height="76.039818" fill="#FFFFFF" fill-opacity="0"/>
	<rect id="Icons/game-development" width="74.000008" height="76.039818" fill="#FFFFFF" fill-opacity="0"/>
	<g clip-path="url(#clip2_6154)">
		<path id="Vector" d="M32.375 39.208L41.625 39.208L41.625 41.5845L32.375 41.5845L32.375 39.208Z" fill="#FFB400" fill-opacity="1.000000" fill-rule="nonzero"/>
		<path id="Vector" d="M35.8438 35.6436L38.1562 35.6436L38.1562 45.1484L35.8438 45.1484L35.8438 35.6436Z" fill="#FFB400" fill-opacity="1.000000" fill-rule="nonzero"/>
		<path id="Vector" d="M65.9062 39.208L68.2188 39.208L68.2188 41.5845L65.9062 41.5845L65.9062 39.208Z" fill="#FFB400" fill-opacity="1.000000" fill-rule="nonzero"/>
		<path id="Vector" d="M56.6562 39.208L58.9688 39.208L58.9688 41.5845L56.6562 41.5845L56.6562 39.208Z" fill="#FFB400" fill-opacity="1.000000" fill-rule="nonzero"/>
		<path id="Vector" d="M61.2812 34.4556L63.5938 34.4556L63.5938 36.832L61.2812 36.832L61.2812 34.4556Z" fill="#FFB400" fill-opacity="1.000000" fill-rule="nonzero"/>
		<path id="Vector" d="M61.2812 43.9604L63.5938 43.9604L63.5938 46.3369L61.2812 46.3369L61.2812 43.9604Z" fill="#FFB400" fill-opacity="1.000000" fill-rule="nonzero"/>
		<path id="Vector" d="M10.6597 20.9404L5.45654 14.2573L10.6597 7.57422L12.4653 9.05957L8.41846 14.2573L12.4653 19.4556L10.6597 20.9404Z" fill="#FFB400" fill-opacity="1.000000" fill-rule="nonzero"/>
		<path id="Vector" d="M28.6528 20.9404L26.8472 19.4556L30.895 14.2573L26.8472 9.05957L28.6528 7.57422L33.8545 14.2573L28.6528 20.9404Z" fill="#FFB400" fill-opacity="1.000000" fill-rule="nonzero"/>
		<path id="Vector" d="M14.7378 18.2256L22.834 8.72314L24.5737 10.2876L16.478 19.791L14.7378 18.2256Z" fill="#FFB400" fill-opacity="1.000000" fill-rule="nonzero"/>
		<path id="Vector" d="M9.25 52.2773L4.625 52.2773L4.625 47.5249L6.9375 47.5249L6.9375 49.9014L9.25 49.9014L9.25 52.2773Z" fill="#FFB400" fill-opacity="1.000000" fill-rule="nonzero"/>
		<path id="Vector" d="M70.5312 2.37646L3.46875 2.37646C1.55322 2.37646 0 3.97266 0 5.94092L0 53.4658C0 55.4341 1.55322 57.0303 3.46875 57.0303L27.75 57.0303L27.75 62.9707C27.75 64.939 26.1968 66.5352 24.2812 66.5352L18.5 66.5352L18.5 73.6636L55.5 73.6636L55.5 66.5352L49.7188 66.5352C47.8032 66.5352 46.25 64.939 46.25 62.9707L46.25 57.0303L70.5312 57.0303C72.4468 57.0303 74 55.4341 74 53.4658L74 5.94092C74 3.97266 72.4468 2.37646 70.5312 2.37646ZM53.1875 68.9111L53.1875 71.2876L20.8125 71.2876L20.8125 68.9111L53.1875 68.9111ZM37 64.2085C38.9155 64.2085 40.4688 62.6128 40.4688 60.6445L40.4688 57.0303L43.9375 57.0303L43.9375 62.9707C43.9419 64.2603 44.3589 65.5127 45.1235 66.5352L28.8765 66.5352C29.6411 65.5127 30.0581 64.2603 30.0625 62.9707L30.0625 57.0303L33.5312 57.0303L33.5312 60.6445C33.5312 62.6128 35.0845 64.2085 37 64.2085ZM35.8438 60.6445L35.8438 57.0303L38.1562 57.0303L38.1562 60.6445C38.1562 61.3003 37.6387 61.8325 37 61.8325C36.3613 61.8325 35.8438 61.3003 35.8438 60.6445ZM71.6875 53.4658C71.6875 54.1221 71.1699 54.6538 70.5312 54.6538L3.46875 54.6538C2.83008 54.6538 2.3125 54.1221 2.3125 53.4658L2.3125 42.7725L25.6689 42.7725C26.6265 47.6094 30.3955 51.3325 35.1367 52.1245C39.8774 52.917 44.6011 50.6128 47.0005 46.3369L52.4351 46.3369C54.3726 49.7988 57.8774 52.0244 61.7573 52.2578C65.6367 52.4912 69.3701 50.7002 71.6875 47.4941L71.6875 53.4658ZM62.4375 49.9014C58.9229 49.9102 55.7109 47.8599 54.1606 44.6191L53.8408 43.9609L45.5967 43.9609L45.2769 44.6191C43.2485 48.8203 38.542 50.875 34.1919 49.4565C29.8413 48.0376 27.1479 43.5708 27.8496 38.936C28.5498 34.3022 32.436 30.8862 37 30.8916L62.4375 30.8916C67.5464 30.8916 71.6875 35.1465 71.6875 40.3965C71.6875 45.646 67.5464 49.9014 62.4375 49.9014ZM71.6875 33.2983C69.5127 30.292 66.083 28.5186 62.4375 28.5151L37 28.5151C30.6167 28.522 25.4443 33.8374 25.4375 40.3965L2.3125 40.3965L2.3125 5.94092C2.3125 5.28467 2.83008 4.75293 3.46875 4.75293L70.5312 4.75293C71.1699 4.75293 71.6875 5.28467 71.6875 5.94092L71.6875 33.2983Z" fill="#FFB400" fill-opacity="1.000000" fill-rule="nonzero"/>
		<path id="Vector" d="M47.4062 39.208L52.0312 39.208L52.0312 41.5845L47.4062 41.5845L47.4062 39.208Z" fill="#FFB400" fill-opacity="1.000000" fill-rule="nonzero"/>
		<path id="Vector" d="M34.6875 9.50488L43.9375 9.50488L43.9375 11.8813L34.6875 11.8813L34.6875 9.50488Z" fill="#FFB400" fill-opacity="1.000000" fill-rule="nonzero"/>
		<path id="Vector" d="M48.5625 9.50488L67.0625 9.50488L67.0625 11.8813L48.5625 11.8813L48.5625 9.50488Z" fill="#FFB400" fill-opacity="1.000000" fill-rule="nonzero"/>
		<path id="Vector" d="M50.875 14.2573L67.0625 14.2573L67.0625 16.6338L50.875 16.6338L50.875 14.2573Z" fill="#FFB400" fill-opacity="1.000000" fill-rule="nonzero"/>
		<path id="Vector" d="M37 14.2573L46.25 14.2573L46.25 16.6338L37 16.6338L37 14.2573Z" fill="#FFB400" fill-opacity="1.000000" fill-rule="nonzero"/>
		<path id="Vector" d="M34.6875 19.0098L57.8125 19.0098L57.8125 21.3862L34.6875 21.3862L34.6875 19.0098Z" fill="#FFB400" fill-opacity="1.000000" fill-rule="nonzero"/>
		<path id="Vector" d="M62.4375 19.0098L67.0625 19.0098L67.0625 21.3862L62.4375 21.3862L62.4375 19.0098Z" fill="#FFB400" fill-opacity="1.000000" fill-rule="nonzero"/>
		<path id="Vector" d="M6.9375 23.7622L18.5 23.7622L18.5 26.1387L6.9375 26.1387L6.9375 23.7622Z" fill="#FFB400" fill-opacity="1.000000" fill-rule="nonzero"/>
		<path id="Vector" d="M23.125 23.7622L45.0938 23.7622L45.0938 26.1387L23.125 26.1387L23.125 23.7622Z" fill="#FFB400" fill-opacity="1.000000" fill-rule="nonzero"/>
		<path id="Vector" d="M48.5625 23.7622L67.0625 23.7622L67.0625 26.1387L48.5625 26.1387L48.5625 23.7622Z" fill="#FFB400" fill-opacity="1.000000" fill-rule="nonzero"/>
		<path id="Vector" d="M6.9375 28.5151L25.4375 28.5151L25.4375 30.8916L6.9375 30.8916L6.9375 28.5151Z" fill="#FFB400" fill-opacity="1.000000" fill-rule="nonzero"/>
		<path id="Vector" d="M6.9375 33.2671L16.1875 33.2671L16.1875 35.6436L6.9375 35.6436L6.9375 33.2671Z" fill="#FFB400" fill-opacity="1.000000" fill-rule="nonzero"/>
		<path id="Vector" d="M18.5 33.2671L23.125 33.2671L23.125 35.6436L18.5 35.6436L18.5 33.2671Z" fill="#FFB400" fill-opacity="1.000000" fill-rule="nonzero"/>
	</g>
</svg>
