<svg width="74.000000" height="76.040039" viewBox="0 0 74 76.04" fill="none" xmlns="http://www.w3.org/2000/svg" xmlns:xlink="http://www.w3.org/1999/xlink">
	<desc>
			Created with Pixso.
	</desc>
	<defs>
		<clipPath id="clip2_6360">
			<rect id="Icons/Microphone" width="74.000008" height="76.039818" fill="white" fill-opacity="0"/>
		</clipPath>
	</defs>
	<rect id="Icons/Microphone" width="74.000008" height="76.039818" fill="#FFFFFF" fill-opacity="0"/>
	<rect id="Icons/Microphone" width="74.000008" height="76.039818" fill="#FFFFFF" fill-opacity="0"/>
	<g clip-path="url(#clip2_6360)">
		<path id="Vector" d="M36.9995 0C29.0176 0 22.5215 6.93945 22.5215 15.4673L22.5215 38.02C22.5215 46.5498 29.0176 53.4873 36.9995 53.4873C44.9819 53.4873 51.478 46.5498 51.478 38.02L51.478 15.4673C51.478 6.93945 44.9819 0 36.9995 0ZM36.9995 50.1812C31.3115 50.1812 26.606 45.5977 25.8545 39.6729L48.1431 39.6729C47.3936 45.5991 42.688 50.1812 36.9995 50.1812ZM48.2607 36.3667L25.7388 36.3667L25.7388 15.4673C25.7388 8.76123 30.79 3.30615 36.9995 3.30615C43.2095 3.30615 48.2607 8.76123 48.2607 15.4673L48.2607 36.3667Z" fill="#FFB400" fill-opacity="1.000000" fill-rule="nonzero"/>
		<path id="Vector" d="M59.522 29.7549C58.6338 29.7549 57.9131 30.4956 57.9131 31.4077L57.9131 38.02C57.9131 49.8691 48.5312 59.5098 37 59.5098C25.4688 59.5098 16.0869 49.8691 16.0869 38.02L16.0869 31.4077C16.0869 30.4956 15.3662 29.7549 14.4785 29.7549C13.5903 29.7549 12.8696 30.4956 12.8696 31.4077L12.8696 38.02C12.8696 51.1338 22.8354 61.875 35.3916 62.7314L35.3916 72.7339L27.3477 72.7339C26.46 72.7339 25.7393 73.4746 25.7393 74.3867C25.7393 75.2993 26.46 76.04 27.3477 76.04L46.6523 76.04C47.54 76.04 48.2607 75.2993 48.2607 74.3867C48.2607 73.4746 47.54 72.7339 46.6523 72.7339L38.6089 72.7339L38.6089 62.7314C51.1646 61.875 61.1304 51.1338 61.1304 38.02L61.1304 31.4077C61.1304 30.4956 60.4097 29.7549 59.522 29.7549Z" fill="#FFB400" fill-opacity="1.000000" fill-rule="nonzero"/>
	</g>
</svg>
