<svg width="86.000000" height="20.551270" viewBox="0 0 86 20.5513" fill="none" xmlns="http://www.w3.org/2000/svg" xmlns:xlink="http://www.w3.org/1999/xlink">
	<desc>
			Created with Pixso.
	</desc>
	<defs>
		<clipPath id="clip2_649">
			<rect id="Frame" width="19.999998" height="20.551300" transform="translate(66.000000 0.000000)" fill="white" fill-opacity="0"/>
		</clipPath>
	</defs>
	<path id="ORDER NOW" d="M7.76953 10.0103Q7.76953 11.27 7.32422 12.2192Q6.87891 13.1685 6.0498 13.6841Q5.2207 14.1997 4.14844 14.1997Q3.08789 14.1997 2.25586 13.6899Q1.42383 13.1802 0.966797 12.2339Q0.509766 11.2876 0.503906 10.0571L0.503906 9.63525Q0.503906 8.37549 0.958008 7.41748Q1.41211 6.45947 2.24121 5.94678Q3.07031 5.43408 4.13672 5.43408Q5.20312 5.43408 6.03223 5.94678Q6.86133 6.45947 7.31543 7.41748Q7.76953 8.37549 7.76953 9.62939L7.76953 10.0103ZM5.98828 9.62354Q5.98828 8.28174 5.50781 7.58447Q5.02734 6.88721 4.13672 6.88721Q3.25195 6.88721 2.77148 7.57568Q2.29102 8.26416 2.28516 9.59424L2.28516 10.0103Q2.28516 11.3169 2.76562 12.0376Q3.24609 12.7583 4.14844 12.7583Q5.0332 12.7583 5.50781 12.064Q5.98242 11.3696 5.98828 10.0396L5.98828 9.62354ZM12.2051 10.9595L10.8047 10.9595L10.8047 14.0825L9.04688 14.0825L9.04688 5.55127L12.2168 5.55127Q13.7285 5.55127 14.5488 6.2251Q15.3691 6.89893 15.3691 8.12939Q15.3691 9.00244 14.9912 9.58545Q14.6133 10.1685 13.8457 10.5142L15.6914 14.0005L15.6914 14.0825L13.8047 14.0825L12.2051 10.9595ZM10.8047 9.53564L12.2227 9.53564Q12.8848 9.53564 13.248 9.19873Q13.6113 8.86182 13.6113 8.27002Q13.6113 7.6665 13.2686 7.3208Q12.9258 6.9751 12.2168 6.9751L10.8047 6.9751L10.8047 9.53564ZM16.7051 14.0825L16.7051 5.55127L19.3301 5.55127Q20.4551 5.55127 21.3428 6.05811Q22.2305 6.56494 22.7285 7.49951Q23.2266 8.43408 23.2266 9.62354L23.2266 10.0161Q23.2266 11.2056 22.7373 12.1313Q22.248 13.0571 21.3574 13.5669Q20.4668 14.0767 19.3477 14.0825L16.7051 14.0825ZM18.4629 6.9751L18.4629 12.6704L19.3125 12.6704Q20.3438 12.6704 20.8887 11.9966Q21.4336 11.3228 21.4453 10.0688L21.4453 9.61768Q21.4453 8.31689 20.9062 7.646Q20.3672 6.9751 19.3301 6.9751L18.4629 6.9751ZM29.6367 10.3853L26.2617 10.3853L26.2617 12.6704L30.2227 12.6704L30.2227 14.0825L24.5039 14.0825L24.5039 5.55127L30.2109 5.55127L30.2109 6.9751L26.2617 6.9751L26.2617 9.0083L29.6367 9.0083L29.6367 10.3853ZM34.4121 10.9595L33.0117 10.9595L33.0117 14.0825L31.2539 14.0825L31.2539 5.55127L34.4238 5.55127Q35.9355 5.55127 36.7559 6.2251Q37.5762 6.89893 37.5762 8.12939Q37.5762 9.00244 37.1982 9.58545Q36.8203 10.1685 36.0527 10.5142L37.8984 14.0005L37.8984 14.0825L36.0117 14.0825L34.4121 10.9595ZM33.0117 9.53564L34.4297 9.53564Q35.0918 9.53564 35.4551 9.19873Q35.8184 8.86182 35.8184 8.27002Q35.8184 7.6665 35.4756 7.3208Q35.1328 6.9751 34.4238 6.9751L33.0117 6.9751L33.0117 9.53564ZM48.8379 14.0825L47.0801 14.0825L43.6582 8.46924L43.6582 14.0825L41.9004 14.0825L41.9004 5.55127L43.6582 5.55127L47.0859 11.1763L47.0859 5.55127L48.8379 5.55127L48.8379 14.0825ZM57.3809 10.0103Q57.3809 11.27 56.9355 12.2192Q56.4902 13.1685 55.6611 13.6841Q54.832 14.1997 53.7598 14.1997Q52.6992 14.1997 51.8672 13.6899Q51.0352 13.1802 50.5781 12.2339Q50.1211 11.2876 50.1152 10.0571L50.1152 9.63525Q50.1152 8.37549 50.5693 7.41748Q51.0234 6.45947 51.8525 5.94678Q52.6816 5.43408 53.748 5.43408Q54.8145 5.43408 55.6436 5.94678Q56.4727 6.45947 56.9268 7.41748Q57.3809 8.37549 57.3809 9.62939L57.3809 10.0103ZM55.5996 9.62354Q55.5996 8.28174 55.1191 7.58447Q54.6387 6.88721 53.748 6.88721Q52.8633 6.88721 52.3828 7.57568Q51.9023 8.26416 51.8965 9.59424L51.8965 10.0103Q51.8965 11.3169 52.377 12.0376Q52.8574 12.7583 53.7598 12.7583Q54.6445 12.7583 55.1191 12.064Q55.5938 11.3696 55.5996 10.0396L55.5996 9.62354ZM65.3027 11.6216L66.4512 5.55127L68.2031 5.55127L66.3105 14.0825L64.541 14.0825L63.1523 8.37549L61.7637 14.0825L59.9941 14.0825L58.1016 5.55127L59.8535 5.55127L61.0078 11.6099L62.4141 5.55127L63.9023 5.55127L65.3027 11.6216Z" fill="#FFB400" fill-opacity="1.000000" fill-rule="evenodd"/>
	<rect id="Frame" width="19.999998" height="20.551300" transform="translate(66.000000 0.000000)" fill="#FFFFFF" fill-opacity="0"/>
	<g clip-path="url(#clip2_649)">
		<path id="Vector" d="M76.1436 10.2754L73.7861 7.854L74.9644 6.64209L78.5005 10.2754L74.9644 13.9087L73.7861 12.6968L76.1436 10.2754Z" fill="#FFB400" fill-opacity="1.000000" fill-rule="nonzero"/>
	</g>
</svg>
