<svg width="78.000000" height="80.149902" viewBox="0 0 78 80.1499" fill="none" xmlns="http://www.w3.org/2000/svg" xmlns:xlink="http://www.w3.org/1999/xlink">
	<desc>
			Created with Pixso.
	</desc>
	<defs>
		<clipPath id="clip2_6020">
			<rect id="Icons/Photographer" width="77.999992" height="80.150070" fill="white" fill-opacity="0"/>
		</clipPath>
	</defs>
	<rect id="Icons/Photographer" width="77.999992" height="80.150070" fill="#FFFFFF" fill-opacity="0"/>
	<rect id="Icons/Photographer" width="77.999992" height="80.150070" fill="#FFFFFF" fill-opacity="0"/>
	<rect id="Icons/Photographer" width="77.999992" height="80.150070" fill="#FFFFFF" fill-opacity="0"/>
	<rect id="Icons/Photographer" width="77.999992" height="80.150070" fill="#FFFFFF" fill-opacity="0"/>
	<rect id="Icons/Photographer" width="77.999992" height="80.150070" fill="#FFFFFF" fill-opacity="0"/>
	<g clip-path="url(#clip2_6020)">
		<path id="Vector" d="M55.3545 74.979L74.7124 74.979L69.7432 59.6587C68.4434 55.6528 65.1274 52.6816 61.0874 51.9038L47.8062 49.3442L47.8062 46.186C50.9878 43.8267 53.2334 40.2329 53.8853 36.0884C56.854 35.5723 59.1289 32.9287 59.1289 29.7329L59.1289 20.6841C59.1289 9.2793 50.0986 0 39 0C27.9014 0 18.8706 9.2793 18.8706 20.6841L18.8706 29.7329C18.8706 32.9248 21.1338 35.584 24.0981 36.105C24.7524 40.2495 27.0103 43.8472 30.1934 46.2051L30.1934 49.3452L16.9106 51.9048C12.8721 52.6831 9.55469 55.6538 8.25537 59.6602L3.28711 74.979L22.645 74.979L22.645 72.3936L19.2241 72.3936L21.3491 63.6572L18.9087 63.0317L16.6304 72.3936L6.77686 72.3936L10.6431 60.4771C11.6533 57.3618 14.2334 55.0503 17.375 54.4438L25.3887 52.9004L27.438 62.3735C26.0996 62.9707 25.1611 64.3384 25.1611 65.9297L25.1611 76.272C25.1611 78.4102 26.8545 80.1499 28.9351 80.1499L49.0645 80.1499C51.145 80.1499 52.8384 78.4102 52.8384 76.272L52.8384 65.9297C52.8384 64.3384 51.8999 62.9707 50.5625 62.3735L52.6118 52.9004L60.626 54.4438C63.7671 55.0503 66.3462 57.3618 67.3579 60.4771L71.2227 72.3936L61.3696 72.3936L59.0913 63.0317L56.6504 63.6572L58.7754 72.3936L55.3545 72.3936L55.3545 74.979ZM50.1372 52.4233L48.3999 60.4565L47.5308 56.8809L42.0366 56.8809L46.9683 51.813L50.1372 52.4233ZM46.1948 62.0518L31.8047 62.0518L32.4341 59.4663L45.5654 59.4663L46.1948 62.0518ZM39 56.3457L32.7095 49.8818L32.7095 47.7021C34.627 48.6099 36.7539 49.124 39 49.124C41.2466 49.124 43.373 48.603 45.29 47.6958L45.29 49.8818L39 56.3457ZM54.0967 33.3735L54.0967 26.0942C55.5571 26.6294 56.6128 28.0513 56.6128 29.7344C56.6128 31.4175 55.5571 32.8384 54.0967 33.3735ZM23.9028 33.3901C22.4385 32.8564 21.3867 31.4189 21.3867 29.7329C21.3867 28.0474 22.4385 26.6099 23.9028 26.0757L23.9028 33.3901ZM21.3867 24.5957L21.3867 20.6841C21.3867 10.7041 29.2876 2.58545 39 2.58545C48.7119 2.58545 56.6128 10.7041 56.6128 20.6841L56.6128 24.5957C55.8682 24.0166 55.0073 23.5889 54.0562 23.396C53.8589 21.8691 52.5981 20.6841 51.0596 20.6841C50.2607 20.6841 49.478 21.0176 48.8491 21.6636C46.7241 23.8472 44.0322 25.2397 41.1157 25.6919L41.1963 25.5264C41.4053 25.0947 41.5161 24.6123 41.5161 24.1304L41.5161 23.8047C41.5161 22.084 40.1533 20.6841 38.479 20.6841C37.6802 20.6841 36.8975 21.0176 36.3315 21.5977C33.6807 24.3203 30.1646 25.8301 26.4189 25.855L26.4189 23.2695L25.1611 23.2695C23.7393 23.2695 22.4409 23.7749 21.3867 24.5957ZM26.4189 33.6113L26.4189 28.4404C30.8364 28.416 34.9854 26.6372 38.1089 23.4272C38.4121 23.1143 39 23.3691 39 23.8047L39 24.1304C39 24.2129 38.981 24.2959 38.9443 24.3706L36.9644 28.4404L39 28.4404C43.3931 28.4404 47.522 26.6836 50.6899 23.4272C50.9941 23.1143 51.5806 23.3691 51.5806 23.8047L51.5806 33.6113C51.5806 40.7397 45.9365 46.5386 39 46.5386C32.063 46.5386 26.4189 40.7397 26.4189 33.6113ZM31.0312 51.813L35.9629 56.8809L30.4688 56.8809L29.5996 60.4565L27.8623 52.4233L31.0312 51.813ZM28.9351 77.5645C28.2422 77.5645 27.6772 76.9854 27.6772 76.272L27.6772 65.9297C27.6772 65.2163 28.2422 64.6372 28.9351 64.6372L32.8491 64.6372C31.2124 66.2817 30.1934 68.5698 30.1934 71.1011C30.1934 73.6318 31.2124 75.9204 32.8491 77.5645L28.9351 77.5645ZM39 77.5645C35.5312 77.5645 32.7095 74.665 32.7095 71.1011C32.7095 67.5366 35.5312 64.6372 39 64.6372C42.4683 64.6372 45.29 67.5366 45.29 71.1011C45.29 74.665 42.4683 77.5645 39 77.5645ZM50.3223 76.272C50.3223 76.9854 49.7573 77.5645 49.0645 77.5645L45.1504 77.5645C46.7871 75.9204 47.8062 73.6318 47.8062 71.1011C47.8062 68.5698 46.7871 66.2817 45.1504 64.6372L49.0645 64.6372C49.7573 64.6372 50.3223 65.2163 50.3223 65.9297L50.3223 76.272Z" fill="#FFB400" fill-opacity="1.000000" fill-rule="nonzero"/>
		<path id="Vector" d="M39 67.2227C36.9189 67.2227 35.2256 68.9629 35.2256 71.1011C35.2256 73.2393 36.9189 74.979 39 74.979C41.0806 74.979 42.7739 73.2393 42.7739 71.1011C42.7739 68.9629 41.0806 67.2227 39 67.2227ZM39 72.3936C38.3066 72.3936 37.7417 71.8145 37.7417 71.1011C37.7417 70.3872 38.3066 69.8081 39 69.8081C39.6929 69.8081 40.2578 70.3872 40.2578 71.1011C40.2578 71.8145 39.6929 72.3936 39 72.3936Z" fill="#FFB400" fill-opacity="1.000000" fill-rule="nonzero"/>
	</g>
</svg>
