<svg width="76.000000" height="78.095215" viewBox="0 0 76 78.0952" fill="none" xmlns="http://www.w3.org/2000/svg" xmlns:xlink="http://www.w3.org/1999/xlink">
	<desc>
			Created with Pixso.
	</desc>
	<defs>
		<clipPath id="clip2_6449">
			<rect id="Icons/illustration" width="76.000000" height="78.094940" fill="white" fill-opacity="0"/>
		</clipPath>
	</defs>
	<rect id="Icons/illustration" width="68.000000" height="69.874428" transform="translate(0.000000 8.220703)" fill="#FFFFFF" fill-opacity="0"/>
	<rect id="Icons/illustration" width="68.000000" height="69.874428" transform="translate(0.000000 8.220703)" fill="#FFFFFF" fill-opacity="0"/>
	<rect id="Icons/illustration" width="76.000000" height="78.094940" fill="#FFFFFF" fill-opacity="0"/>
	<rect id="Icons/illustration" width="76.000000" height="78.094940" fill="#FFFFFF" fill-opacity="0"/>
	<rect id="Icons/illustration" width="76.000000" height="78.094940" fill="#FFFFFF" fill-opacity="0"/>
	<g clip-path="url(#clip2_6449)">
		<path id="Vector" d="M35.3281 56.6631C34.7134 56.6631 34.2148 57.1753 34.2148 57.8071C34.2148 58.439 34.7134 58.9512 35.3281 58.9512L40.6719 58.9512C41.2866 58.9512 41.7852 58.439 41.7852 57.8071C41.7852 57.1753 41.2866 56.6631 40.6719 56.6631L35.3281 56.6631Z" fill="#FFB400" fill-opacity="1.000000" fill-rule="nonzero"/>
		<path id="Vector" d="M13.3594 38.8999L20.7183 38.8999C21.168 40.1021 22.3003 40.959 23.6265 40.959C24.9526 40.959 26.085 40.1021 26.5342 38.8999L28.0054 38.8999C28.6201 38.8999 29.1187 38.3877 29.1187 37.7559C29.1187 37.124 28.6201 36.6118 28.0054 36.6118L26.5342 36.6118C26.085 35.4097 24.9526 34.5527 23.6265 34.5527C22.3003 34.5527 21.168 35.4097 20.7183 36.6118L13.3594 36.6118C12.7446 36.6118 12.2461 37.124 12.2461 37.7559C12.2461 38.3877 12.7446 38.8999 13.3594 38.8999ZM23.6265 36.8408C24.1177 36.8408 24.5171 37.251 24.5171 37.7559C24.5171 38.2607 24.1177 38.6709 23.6265 38.6709C23.1353 38.6709 22.7358 38.2607 22.7358 37.7559C22.7358 37.251 23.1353 36.8408 23.6265 36.8408Z" fill="#FFB400" fill-opacity="1.000000" fill-rule="nonzero"/>
		<path id="Vector" d="M13.3594 32.3413L14.7808 32.3413C15.2305 33.5435 16.3628 34.4004 17.689 34.4004C19.0151 34.4004 20.1475 33.5435 20.5967 32.3413L28.0054 32.3413C28.6201 32.3413 29.1187 31.8291 29.1187 31.1973C29.1187 30.5654 28.6201 30.0532 28.0054 30.0532L20.5967 30.0532C20.1475 28.8511 19.0151 27.9941 17.689 27.9941C16.3628 27.9941 15.2305 28.8511 14.7808 30.0532L13.3594 30.0532C12.7446 30.0532 12.2461 30.5654 12.2461 31.1973C12.2461 31.8291 12.7446 32.3413 13.3594 32.3413ZM17.689 30.2822C18.1802 30.2822 18.5796 30.6924 18.5796 31.1973C18.5796 31.7021 18.1802 32.1123 17.689 32.1123C17.1978 32.1123 16.7983 31.7021 16.7983 31.1973C16.7983 30.6924 17.1978 30.2822 17.689 30.2822Z" fill="#FFB400" fill-opacity="1.000000" fill-rule="nonzero"/>
		<path id="Vector" d="M29.3413 20.6729C29.3413 21.3047 28.8428 21.8169 28.228 21.8169C27.6133 21.8169 27.1147 21.3047 27.1147 20.6729C27.1147 20.041 27.6133 19.5288 28.228 19.5288C28.8428 19.5288 29.3413 20.041 29.3413 20.6729Z" fill="#FFB400" fill-opacity="1.000000" fill-rule="evenodd"/>
		<path id="Vector" d="M26.2734 20.6729C26.2734 21.3047 25.7749 21.8169 25.1602 21.8169C24.5454 21.8169 24.0469 21.3047 24.0469 20.6729C24.0469 20.041 24.5454 19.5288 25.1602 19.5288C25.7749 19.5288 26.2734 20.041 26.2734 20.6729Z" fill="#FFB400" fill-opacity="1.000000" fill-rule="evenodd"/>
		<path id="Vector" d="M23.2056 20.6729C23.2056 21.3047 22.707 21.8169 22.0923 21.8169C21.4775 21.8169 20.979 21.3047 20.979 20.6729C20.979 20.041 21.4775 19.5288 22.0923 19.5288C22.707 19.5288 23.2056 20.041 23.2056 20.6729Z" fill="#FFB400" fill-opacity="1.000000" fill-rule="evenodd"/>
		<path id="Vector" d="M72.6602 7.7002L72.2432 7.7002L72.5542 7.38086C73.4858 6.42334 73.4858 4.86621 72.5542 3.90918L70.1172 1.40479C69.1855 0.447754 67.6699 0.447754 66.7388 1.40479L60.6123 7.7002L3.33984 7.7002C1.49854 7.7002 0 9.23975 0 11.1318L0 58.6392C0 60.9521 1.83105 62.834 4.08203 62.834L30.4512 62.834L30.4512 70.9263L25.0859 70.9263C23.6538 70.9263 22.4883 72.124 22.4883 73.5957L22.4883 74.7388C22.4883 76.2104 23.6538 77.4077 25.0859 77.4077L50.9141 77.4077C52.3462 77.4077 53.5117 76.2104 53.5117 74.7388L53.5117 73.5957C53.5117 72.124 52.3462 70.9263 50.9141 70.9263L45.5488 70.9263L45.5488 62.834L57.4453 62.834C58.0601 62.834 58.5586 62.3218 58.5586 61.6899C58.5586 61.0581 58.0601 60.5459 57.4453 60.5459L4.08203 60.5459C3.05908 60.5459 2.22656 59.6909 2.22656 58.6392L2.22656 55.2534L73.7734 55.2534L73.7734 58.6392C73.7734 59.6909 72.9409 60.5459 71.918 60.5459L62.6406 60.5459C62.0259 60.5459 61.5273 61.0581 61.5273 61.6899C61.5273 62.3218 62.0259 62.834 62.6406 62.834L71.918 62.834C74.1689 62.834 76 60.9521 76 58.6392L76 11.1323C76 9.23975 74.5015 7.7002 72.6602 7.7002ZM50.9141 73.2144C51.1187 73.2144 51.2852 73.3857 51.2852 73.5957L51.2852 74.7388C51.2852 74.9492 51.1187 75.1201 50.9141 75.1201L25.0859 75.1201C24.8813 75.1201 24.7148 74.9492 24.7148 74.7388L24.7148 73.5957C24.7148 73.3857 24.8813 73.2144 25.0859 73.2144L50.9141 73.2144ZM32.6777 62.834L43.3223 62.834L43.3223 70.9268L32.6777 70.9268L32.6777 62.834ZM68.313 3.02295C68.3765 2.95752 68.4795 2.95801 68.543 3.02295L70.9795 5.52686C71.043 5.5918 71.043 5.69775 70.9795 5.76318L68.6543 8.15234L65.9878 5.41211L68.313 3.02295ZM64.4131 7.02979L67.0796 9.77002L66.3032 10.5679L63.6367 7.82812L64.4131 7.02979ZM62.0625 9.4458L64.729 12.186L51.5552 25.7231L48.8882 22.9829L62.0625 9.4458ZM60.4141 19.9048C61.9282 19.9048 63.1602 21.1704 63.1602 22.7266C63.1602 24.2822 61.9282 25.5483 60.4141 25.5483C58.8999 25.5483 57.668 24.2822 57.668 22.7266C57.668 22.708 57.6704 22.6904 57.6704 22.6724L60.3623 19.9072C60.3794 19.9072 60.3965 19.9048 60.4141 19.9048ZM49.6216 26.9722L46.3267 28.355L47.6729 24.9692L49.6216 26.9722ZM73.7734 52.9653L2.22656 52.9653L2.22656 11.1323C2.22656 10.5015 2.72607 9.98828 3.33984 9.98828L58.3857 9.98828L56.6885 11.7324L18.8516 11.7324C18.2368 11.7324 17.7383 12.2446 17.7383 12.8765C17.7383 13.5083 18.2368 14.0205 18.8516 14.0205L54.4619 14.0205L46.6094 22.0898C46.3877 22.3198 46.2139 22.5884 46.0947 22.8887L43.6079 29.145C43.3799 29.7197 43.5083 30.3745 43.9351 30.813C44.2217 31.1074 44.603 31.2637 44.9917 31.2637C45.1826 31.2637 45.3745 31.2261 45.5586 31.1489L51.647 28.5938C51.9307 28.4746 52.1851 28.3022 52.4048 28.083L55.7915 24.6035C56.521 26.4946 58.3169 27.8364 60.4141 27.8364C63.1562 27.8364 65.3867 25.5439 65.3867 22.7266C65.3867 20.5718 64.0815 18.7266 62.2417 17.9766L66.0918 14.0205L69.8491 14.0205L69.8491 48.9336L69.2593 48.9336L65.2246 41.7529C64.9175 41.2056 64.2363 41.0181 63.7041 41.334C63.1714 41.6499 62.9893 42.3496 63.2964 42.897L66.6885 48.9336L51.1367 48.9336L49.4688 45.9648L57.2446 32.1255L60.6987 38.2734C61.0063 38.8208 61.687 39.0083 62.2197 38.6924C62.752 38.3765 62.9346 37.6768 62.627 37.1294L58.9419 30.5708C58.5874 29.9399 57.9531 29.5635 57.2441 29.5635C56.5356 29.5635 55.9009 29.9399 55.5469 30.5708L48.1826 43.6768L38.7344 26.8604C38.3799 26.23 37.7456 25.8535 37.0366 25.8535C36.3281 25.8535 35.6934 26.23 35.3394 26.8604L32.8291 31.3281L32.8291 19.0659C32.8291 17.5942 31.6636 16.3965 30.2314 16.3965L11.1328 16.3965C9.70068 16.3965 8.53516 17.5942 8.53516 19.0659L8.53516 44.0806C8.53516 45.1323 9.36768 45.9873 10.3906 45.9873L24.5928 45.9873L22.9375 48.9336L6.15088 48.9336L6.15088 14.0205L13.6562 14.0205C14.271 14.0205 14.7695 13.5083 14.7695 12.8765C14.7695 12.2446 14.271 11.7324 13.6562 11.7324L5.77979 11.7324C4.75635 11.7324 3.92432 12.5879 3.92432 13.6392L3.92432 49.3145C3.92432 50.3662 4.75635 51.2212 5.77979 51.2212L70.2202 51.2212C71.2437 51.2212 72.0757 50.3662 72.0757 49.3145L72.0757 13.6392C72.0757 12.5879 71.2437 11.7324 70.2202 11.7324L68.3188 11.7324L70.0166 9.98828L72.6602 9.98828C73.2739 9.98828 73.7734 10.5015 73.7734 11.1323L73.7734 52.9653ZM30.603 25.4014L30.603 43.6992L10.7617 43.6992L10.7617 25.4014L30.603 25.4014ZM10.7617 23.1133L10.7617 19.0654C10.7617 18.8555 10.9282 18.6841 11.1328 18.6841L30.2319 18.6841C30.4365 18.6841 30.603 18.8555 30.603 19.0654L30.603 23.1133L10.7617 23.1133ZM27.1641 45.9868L30.9741 45.9868C31.9971 45.9868 32.8296 45.1318 32.8296 44.0806L32.8296 41.6572C33.1079 41.7944 33.418 41.8687 33.7427 41.8687C34.5029 41.8687 35.1831 41.4648 35.563 40.7886L37.4575 37.4165C37.5151 37.3149 37.6025 37.2935 37.6655 37.2935C37.729 37.2935 37.8169 37.3149 37.874 37.4165L39.042 39.4956C39.4219 40.1719 40.1025 40.5757 40.8628 40.5757C41.6226 40.5757 42.3032 40.1719 42.6831 39.4956L42.9731 38.9795L48.5654 48.9331L25.5088 48.9331L27.1641 45.9868ZM32.8296 37.8276L32.8296 35.9038L37.0371 28.415L41.6875 36.6914L40.8623 38.1597L39.8022 36.2725C39.356 35.479 38.5576 35.0054 37.6655 35.0054C36.7739 35.0054 35.9751 35.479 35.5293 36.2725L33.7422 39.4526L32.8296 37.8276Z" fill="#FFB400" fill-opacity="1.000000" fill-rule="nonzero"/>
	</g>
</svg>
